<?xml version="1.0" encoding="UTF-8" standalone="no"?><!DOCTYPE svg PUBLIC "-//W3C//DTD SVG 1.1//EN" "http://www.w3.org/Graphics/SVG/1.1/DTD/svg11.dtd"><svg width="100%" height="100%" viewBox="0 0 3417 475" version="1.1" xmlns="http://www.w3.org/2000/svg" xmlns:xlink="http://www.w3.org/1999/xlink" xml:space="preserve" xmlns:serif="http://www.serif.com/" style="fill-rule:evenodd;clip-rule:evenodd;stroke-linejoin:round;stroke-miterlimit:2;"><g><path d="M770.179,468.338l0,-175.388l-245.292,-286.596l108.663,0l179.838,212.883l180.475,-212.883l102.941,0l-245.925,286.596l0,175.387l-80.7,0Z" style="fill:#262626;fill-rule:nonzero;"/><path d="M1488.26,468.338l-69.266,-116.288l-218.6,0l38.133,-65.454l141.704,-0l-102.942,-172.846l-209.704,354.587l-92.146,0l265.625,-442.283c4.659,-8.042 10.167,-14.396 16.525,-19.058c6.355,-4.663 13.98,-6.996 22.875,-6.996c8.896,-0 16.413,2.333 22.559,6.996c6.137,4.662 11.537,11.016 16.204,19.058l266.267,442.284l-97.234,-0Z" style="fill:#262626;fill-rule:nonzero;"/><path d="M1784.4,468.338c-32.204,-0 -61.963,-6.034 -89.283,-18.113c-27.33,-12.075 -51.055,-28.592 -71.175,-49.567c-20.125,-20.966 -35.8,-45.85 -47.021,-74.666c-11.234,-28.8 -16.842,-59.938 -16.842,-93.413c0,-33.887 5.608,-64.816 16.842,-92.775c11.22,-27.958 26.895,-51.791 47.021,-71.491c20.12,-19.7 43.845,-34.95 71.175,-45.755c27.32,-10.804 57.079,-16.204 89.283,-16.204l250.371,0l-0,80.704l-250.371,0c-20.767,0 -39.938,3.717 -57.513,11.121c-17.587,7.417 -32.72,17.692 -45.433,30.821c-12.708,13.138 -22.667,28.813 -29.867,47.025c-7.208,18.221 -10.8,38.346 -10.8,60.367c0,21.608 3.592,41.733 10.8,60.37c7.2,18.651 17.159,34.634 29.867,47.976c12.713,13.345 27.846,23.833 45.433,31.458c17.575,7.625 36.746,11.437 57.513,11.437l250.371,0l-0,80.705l-250.371,-0Z" style="fill:#262626;fill-rule:nonzero;"/><path d="M2311.19,468.338c-32.204,-0 -61.959,-6.034 -89.279,-18.113c-27.33,-12.075 -51.063,-28.592 -71.175,-49.567c-20.13,-20.966 -35.805,-45.85 -47.025,-74.666c-11.23,-28.8 -16.842,-59.938 -16.842,-93.413c-0,-33.887 5.612,-64.816 16.842,-92.775c11.22,-27.958 26.895,-51.791 47.025,-71.491c20.112,-19.7 43.845,-34.95 71.175,-45.755c27.32,-10.804 57.075,-16.204 89.279,-16.204l250.371,0l-0,80.704l-250.371,0c-20.763,0 -39.934,3.717 -57.513,11.121c-17.583,7.417 -32.725,17.692 -45.433,30.821c-12.713,13.138 -22.667,28.813 -29.867,47.025c-7.208,18.221 -10.804,38.346 -10.804,60.367c0,21.608 3.596,41.733 10.804,60.37c7.2,18.651 17.154,34.634 29.867,47.976c12.708,13.345 27.85,23.833 45.433,31.458c17.579,7.625 36.75,11.437 57.513,11.437l250.371,0l-0,80.705l-250.371,-0Z" style="fill:#262626;fill-rule:nonzero;"/><path d="M2998.76,470.246l-0,-200.809l-232.584,0l0,-71.808l232.584,0l-0,-191.275l80.704,0l-0,463.892l-80.704,-0Zm-371.746,-0l-0,-463.892l80.704,0l-0,463.892l-80.704,-0Z" style="fill:#262626;fill-rule:nonzero;"/><rect x="3163.99" y="6.354" width="80.696" height="461.983" style="fill:#262626;"/><rect x="3333.65" y="6.354" width="80.7" height="461.983" style="fill:#262626;"/><path d="M478.508,2.542l-76.891,-0l-0,338.071l-0.546,-0.546l77.437,76.95l0,-414.475Z" style="fill:#262626;fill-rule:nonzero;"/><path d="M0,468.338l76.888,-0l-0.001,-338.159l-76.887,-78.262l0,416.421Z" style="fill:#262626;fill-rule:nonzero;"/><path d="M438.471,474.054c11.854,0 21.5,-4.237 28.917,-12.708c7.404,-8.471 11.12,-20.333 11.12,-35.584l0,-8.745l-77.437,-76.95l-325.45,-322.909c-5.938,-5.929 -11.659,-10.162 -17.163,-12.708c-5.508,-2.542 -11.225,-3.817 -17.154,-3.817c-12.712,0 -22.775,4.35 -30.183,13.029c-7.421,8.688 -11.121,20.446 -11.121,35.267l-0,2.988l83.554,85.062l318.063,319.921c11.437,11.438 23.716,17.154 36.854,17.154Z" style="fill:#ff754f;fill-rule:nonzero;"/></g></svg>