<?xml version="1.0" encoding="UTF-8" standalone="no"?>
<!DOCTYPE svg PUBLIC "-//W3C//DTD SVG 1.1//EN" "http://www.w3.org/Graphics/SVG/1.1/DTD/svg11.dtd">
<svg width="100%" height="100%" viewBox="0 0 820 114" version="1.1" xmlns="http://www.w3.org/2000/svg" xmlns:xlink="http://www.w3.org/1999/xlink" 
xml:space="preserve" xmlns:serif="http://www.serif.com/" 
style="fill-rule:evenodd;clip-rule:evenodd;stroke-linejoin:round;stroke-miterlimit:2;">
<g><path d="M184.843,112.401l-0,-42.093l-58.87,-68.783l26.079,0l43.161,51.092l43.314,-51.092l24.706,0l-59.022,68.783l-0,42.093l-19.368,0Z" style="fill:#fdf3f0;fill-rule:nonzero;"/>
<path d="M357.182,112.401l-16.624,-27.909l-52.464,-0l9.152,-15.709l34.009,0l-24.706,-41.483l-50.329,85.101l-22.115,0l63.75,-106.148c1.118,-1.93 2.44,-3.455 3.966,-4.574c1.525,-1.119 3.355,-1.679 5.49,-1.679c2.135,0 3.939,0.56 5.414,1.679c1.473,1.119 2.769,2.644 3.889,4.574l63.904,106.148l-23.336,0Z" style="fill:#fdf3f0;fill-rule:nonzero;"/>
<path d="M428.255,112.401c-7.729,0 -14.871,-1.448 -21.428,-4.347c-6.559,-2.898 -12.253,-6.862 -17.082,-11.896c-4.83,-5.032 -8.592,-11.004 -11.285,-17.92c-2.696,-6.912 -4.042,-14.385 -4.042,-22.419c0,-8.133 1.346,-15.556 4.042,-22.266c2.693,-6.71 6.455,-12.43 11.285,-17.158c4.829,-4.728 10.523,-8.388 17.082,-10.981c6.557,-2.593 13.699,-3.889 21.428,-3.889l60.089,0l-0,19.369l-60.089,-0c-4.984,-0 -9.585,0.892 -13.803,2.669c-4.221,1.78 -7.853,4.246 -10.904,7.397c-3.05,3.153 -5.44,6.915 -7.168,11.286c-1.73,4.373 -2.592,9.203 -2.592,14.488c-0,5.186 0.862,10.016 2.592,14.489c1.728,4.476 4.118,8.312 7.168,11.514c3.051,3.203 6.683,5.72 10.904,7.55c4.218,1.83 8.819,2.745 13.803,2.745l60.089,-0l-0,19.369l-60.089,0Z" style="fill:#fdf3f0;fill-rule:nonzero;"/>
<path d="M554.686,112.401c-7.729,0 -14.87,-1.448 -21.427,-4.347c-6.559,-2.898 -12.255,-6.862 -17.082,-11.896c-4.831,-5.032 -8.593,-11.004 -11.286,-17.92c-2.695,-6.912 -4.042,-14.385 -4.042,-22.419c-0,-8.133 1.347,-15.556 4.042,-22.266c2.693,-6.71 6.455,-12.43 11.286,-17.158c4.827,-4.728 10.523,-8.388 17.082,-10.981c6.557,-2.593 13.698,-3.889 21.427,-3.889l60.089,0l-0,19.369l-60.089,-0c-4.983,-0 -9.584,0.892 -13.803,2.669c-4.22,1.78 -7.854,4.246 -10.904,7.397c-3.051,3.153 -5.44,6.915 -7.168,11.286c-1.73,4.373 -2.593,9.203 -2.593,14.488c-0,5.186 0.863,10.016 2.593,14.489c1.728,4.476 4.117,8.312 7.168,11.514c3.05,3.203 6.684,5.72 10.904,7.55c4.219,1.83 8.82,2.745 13.803,2.745l60.089,-0l-0,19.369l-60.089,0Z" style="fill:#fdf3f0;fill-rule:nonzero;"/>
<path d="M719.703,112.859l-0,-48.194l-55.82,-0l0,-17.234l55.82,-0l-0,-45.906l19.369,0l-0,111.334l-19.369,-0Zm-89.219,-0l-0,-111.334l19.369,0l-0,111.334l-19.369,-0Z" style="fill:#fdf3f0;fill-rule:nonzero;"/><rect x="759.357" y="1.525" width="19.367" height="110.876" style="fill:#fdf3f0;fill-rule:nonzero;"/>
<rect x="800.076" y="1.525" width="19.368" height="110.876" style="fill:#fdf3f0;fill-rule:nonzero;"/><path d="M114.842,0.61l-18.454,-0l-0,81.137l-0.131,-0.131l18.585,18.468l-0,-99.474Z" style="fill:#fdf3f0;fill-rule:nonzero;"/>
<path d="M0,112.401l18.453,0l-0,-81.158l-18.453,-18.783l0,99.941Z" style="fill:#fdf3f0;fill-rule:nonzero;"/><path d="M105.233,113.773c2.845,0 5.16,-1.017 6.94,-3.05c1.777,-2.033 2.669,-4.88 2.669,-8.54l-0,-2.099l-18.585,-18.468l-78.108,-77.498c-1.425,-1.423 -2.798,-2.439 -4.119,-3.05c-1.322,-0.61 -2.694,-0.916 -4.117,-0.916c-3.051,0 -5.466,1.044 -7.244,3.127c-1.781,2.085 -2.669,4.907 -2.669,8.464l0,0.717l20.053,20.415l76.335,76.781c2.745,2.745 5.692,4.117 8.845,4.117Z" style="fill:#ff754f;fill-rule:nonzero;"/></g></svg>