<svg xmlns="http://www.w3.org/2000/svg" viewBox="0 0 820 114" stroke-linejoin="round"><style>.a{fill:#fdf3f0;}
</style>
<path d="M184.8 112.4l0-42.1 -58.9-68.8 26.1 0 43.2 51.1 43.3-51.1 24.7 0 -59 68.8 0 42.1 -19.4 0Z" class="a"/>
<path d="M357.2 112.4l-16.6-27.9 -52.5 0 9.2-15.7 34 0 -24.7-41.5 -50.3 85.1 -22.1 0 63.8-106.1c1.1-1.9 2.4-3.5 4-4.6 1.5-1.1 3.4-1.7 5.5-1.7 2.1 0 3.9 0.6 5.4 1.7 1.5 1.1 2.8 2.6 3.9 4.6l63.9 106.1 -23.3 0Z" class="a"/><path d="M428.3 112.4c-7.7 0-14.9-1.4-21.4-4.3 -6.6-2.9-12.3-6.9-17.1-11.9 -4.8-5-8.6-11-11.3-17.9 -2.7-6.9-4-14.4-4-22.4 0-8.1 1.3-15.6 4-22.3 2.7-6.7 6.5-12.4 11.3-17.2 4.8-4.7 10.5-8.4 17.1-11 6.6-2.6 13.7-3.9 21.4-3.9l60.1 0 0 19.4 -60.1 0c-5 0-9.6 0.9-13.8 2.7 -4.2 1.8-7.9 4.2-10.9 7.4 -3 3.2-5.4 6.9-7.2 11.3 -1.7 4.4-2.6 9.2-2.6 14.5 0 5.2 0.9 10 2.6 14.5 1.7 4.5 4.1 8.3 7.2 11.5 3.1 3.2 6.7 5.7 10.9 7.6 4.2 1.8 8.8 2.7 13.8 2.7l60.1 0 0 19.4 -60.1 0Z" class="a"/><path d="M554.7 112.4c-7.7 0-14.9-1.4-21.4-4.3 -6.6-2.9-12.3-6.9-17.1-11.9 -4.8-5-8.6-11-11.3-17.9 -2.7-6.9-4-14.4-4-22.4 0-8.1 1.3-15.6 4-22.3 2.7-6.7 6.5-12.4 11.3-17.2 4.8-4.7 10.5-8.4 17.1-11 6.6-2.6 13.7-3.9 21.4-3.9l60.1 0 0 19.4 -60.1 0c-5 0-9.6 0.9-13.8 2.7 -4.2 1.8-7.9 4.2-10.9 7.4 -3.1 3.2-5.4 6.9-7.2 11.3 -1.7 4.4-2.6 9.2-2.6 14.5 0 5.2 0.9 10 2.6 14.5 1.7 4.5 4.1 8.3 7.2 11.5 3.1 3.2 6.7 5.7 10.9 7.6 4.2 1.8 8.8 2.7 13.8 2.7l60.1 0 0 19.4 -60.1 0Z" class="a"/><path d="M719.7 112.9l0-48.2 -55.8 0 0-17.2 55.8 0 0-45.9 19.4 0 0 111.3 -19.4 0Zm-89.2 0l0-111.3 19.4 0 0 111.3 -19.4 0Z" class="a"/><rect x="759.4" y="1.5" width="19.4" height="110.9" class="a"/><rect x="800.1" y="1.5" width="19.4" height="110.9" class="a"/><path d="M114.8 0.6l-18.5 0 0 81.1 -0.1-0.1 18.6 18.5 0-99.5Z" class="a"/><path d="M0 112.4l18.5 0 0-81.2 -18.5-18.8 0 99.9Z" class="a"/><path d="M105.2 113.8c2.8 0 5.2-1 6.9-3 1.8-2 2.7-4.9 2.7-8.5l0-2.1 -18.6-18.5 -78.1-77.5c-1.4-1.4-2.8-2.4-4.1-3 -1.3-0.6-2.7-0.9-4.1-0.9 -3.1 0-5.5 1-7.2 3.1 -1.8 2.1-2.7 4.9-2.7 8.5l0 0.7 20.1 20.4 76.3 76.8c2.7 2.7 5.7 4.1 8.8 4.1Z" fill="#ff754f"/></svg>
